<?xml version="1.0" encoding="UTF-8" standalone="no"?>
<svg
   xmlns:dc="http://purl.org/dc/elements/1.1/"
   xmlns:cc="http://creativecommons.org/ns#"
   xmlns:rdf="http://www.w3.org/1999/02/22-rdf-syntax-ns#"
   xmlns:svg="http://www.w3.org/2000/svg"
   xmlns="http://www.w3.org/2000/svg"
   xmlns:sodipodi="http://sodipodi.sourceforge.net/DTD/sodipodi-0.dtd"
   xmlns:inkscape="http://www.inkscape.org/namespaces/inkscape"
   id="Layer_1"
   data-name="Layer 1"
   viewBox="0 0 114.97 114.97"
   version="1.1"
   sodipodi:docname="linkedin.svg"
   inkscape:version="0.92.2 5c3e80d, 2017-08-06">
  <metadata
     id="metadata3777">
    <rdf:RDF>
      <cc:Work
         rdf:about="">
        <dc:format>image/svg+xml</dc:format>
        <dc:type
           rdf:resource="http://purl.org/dc/dcmitype/StillImage" />
      </cc:Work>
    </rdf:RDF>
  </metadata>
  <defs
     id="defs3775" />
  <sodipodi:namedview
     pagecolor="#ffffff"
     bordercolor="#666666"
     borderopacity="1"
     objecttolerance="10"
     gridtolerance="10"
     guidetolerance="10"
     inkscape:pageopacity="0"
     inkscape:pageshadow="2"
     inkscape:window-width="1441"
     inkscape:window-height="916"
     id="namedview3773"
     showgrid="false"
     inkscape:zoom="7.2018787"
     inkscape:cx="32.630375"
     inkscape:cy="57.485001"
     inkscape:window-x="0"
     inkscape:window-y="0"
     inkscape:window-maximized="0"
     inkscape:current-layer="Layer_1" />
  <title
     id="title3766">icon-linkedin-black</title>
  <path
     d="M189.1,435.47A57.49,57.49,0,1,1,246.58,378,57.55,57.55,0,0,1,189.1,435.47Zm0-109A51.49,51.49,0,1,0,240.58,378,51.55,51.55,0,0,0,189.1,326.5Z"
     transform="translate(-131.61 -320.5)"
     id="path3768"
     style="fill:#ffffff" />
  <path
     d="M216.18,402.88v-20c0-10.73-5.73-15.73-13.37-15.73a11.52,11.52,0,0,0-10.46,5.77v-5H180.74c0.15,3.28,0,34.94,0,34.94h11.61V383.37a7.94,7.94,0,0,1,.38-2.83,6.35,6.35,0,0,1,6-4.25c4.2,0,5.88,3.2,5.88,7.9v18.69h11.61ZM168.5,363.17c4,0,6.57-2.69,6.57-6s-2.52-6-6.5-6-6.57,2.61-6.57,6,2.52,6,6.42,6h0.07Zm5.81,39.71V367.94H162.7v34.94h11.61Z"
     transform="translate(-131.61 -320.5)"
     id="path3770"
     style="fill:#ffffff" />
</svg>
